Coordinates
version=1
nRows=54
nColumns=12
inDegrees=yes

Units are S.I. units (second, meters, Newtons, ...)
Angles are in degrees

endheader
time	SC_y	SC_z	SC_x	AC_y	AC_z	AC_x	GH_y	GH_z	GH_yy	EL_x	PS_y
       0.0              -43.17          5.927          84.36          69.81         -17.31         -14.13         -154.0           67.7         -130.5          66.24          24.29
  0.002181              -43.17          5.931          84.35           69.8         -17.31         -14.13         -154.0           67.7         -130.4          66.24           24.3
  0.004362              -43.16          5.935          84.35           69.8          -17.3         -14.13         -153.9           67.7         -130.4          66.25          24.31
  0.006542              -43.16          5.939          84.34           69.8          -17.3         -14.13         -153.9           67.7         -130.4          66.25          24.33
  0.008723              -43.16          5.944          84.34          69.79          -17.3         -14.13         -153.9           67.7         -130.3          66.26          24.34
    0.0109              -43.16          5.949          84.33          69.79          -17.3         -14.12         -153.9           67.7         -130.3          66.26          24.36
   0.01308              -43.15          5.955          84.33          69.78          -17.3         -14.12         -153.8           67.7         -130.3          66.26          24.38
   0.01527              -43.15           5.96          84.32          69.78          -17.3         -14.12         -153.8           67.7         -130.2          66.27           24.4
   0.01745              -43.15          5.967          84.31          69.77          -17.3         -14.12         -153.8          67.71         -130.2          66.28          24.42
   0.01963              -43.14          5.973          84.31          69.77          -17.3         -14.12         -153.8          67.71         -130.1          66.28          24.44
   0.02181              -43.14           5.98           84.3          69.76         -17.29         -14.12         -153.7          67.71         -130.1          66.29          24.46
   0.02399              -43.13          5.988          84.29          69.76         -17.29         -14.11         -153.7          67.71         -130.1          66.29          24.49
   0.02617              -43.13          5.996          84.28          69.75         -17.29         -14.11         -153.7          67.71         -130.0           66.3          24.52
   0.02835              -43.12          6.005          84.27          69.74         -17.29         -14.11         -153.6          67.71         -129.9          66.31          24.55
   0.03053              -43.12          6.015          84.26          69.74         -17.29         -14.11         -153.6          67.71         -129.9          66.32          24.58
   0.03271              -43.11          6.025          84.25          69.73         -17.28          -14.1         -153.5          67.72         -129.8          66.33          24.61
   0.03489              -43.11          6.037          84.24          69.72         -17.28          -14.1         -153.5          67.72         -129.7          66.34          24.65
   0.03707               -43.1          6.049          84.22          69.71         -17.28          -14.1         -153.4          67.72         -129.6          66.35          24.69
   0.03925              -43.09          6.063          84.21           69.7         -17.28          -14.1         -153.4          67.72         -129.6          66.36          24.74
   0.04144              -43.08          6.078          84.19          69.69         -17.27         -14.09         -153.3          67.72         -129.5          66.37          24.79
   0.04362              -43.07          6.094          84.18          69.67         -17.27         -14.09         -153.2          67.73         -129.4          66.39          24.84
    0.0458              -43.06          6.112          84.16          69.66         -17.27         -14.08         -153.1          67.73         -129.2           66.4           24.9
   0.04798              -43.05          6.132          84.14          69.64         -17.26         -14.08         -153.1          67.73         -129.1          66.42          24.97
   0.05016              -43.04          6.154          84.11          69.62         -17.26         -14.07         -153.0          67.74         -129.0          66.44          25.04
   0.05234              -43.03          6.178          84.09          69.61         -17.25         -14.07         -152.9          67.74         -128.8          66.46          25.12
   0.05452              -43.01          6.205          84.06          69.58         -17.24         -14.06         -152.7          67.75         -128.6          66.49          25.22
    0.0567              -42.99          6.236          84.03          69.56         -17.24         -14.05         -152.6          67.75         -128.4          66.51          25.32
   0.05888              -42.97           6.27          83.99          69.53         -17.23         -14.04         -152.4          67.76         -128.2          66.54          25.43
   0.06106              -42.95          6.309          83.95           69.5         -17.22         -14.03         -152.3          67.76         -127.9          66.58          25.56
   0.06324              -42.93          6.353           83.9          69.47         -17.21         -14.02         -152.1          67.77         -127.6          66.62          25.71
   0.06542               -42.9          6.403          83.85          69.43          -17.2         -14.01         -151.9          67.78         -127.3          66.66          25.88
   0.06761              -42.87          6.461          83.79          69.38         -17.19         -13.99         -151.6          67.79         -126.9          66.71          26.07
   0.06979              -42.83          6.527          83.71          69.33         -17.17         -13.98         -151.3           67.8         -126.5          66.77          26.29
   0.07197              -42.79          6.605          83.63          69.27         -17.16         -13.96         -151.0          67.81         -126.0          66.84          26.55
   0.07415              -42.73          6.695          83.53          69.19         -17.14         -13.93         -150.6          67.83         -125.4          66.92          26.85
   0.07633              -42.67          6.802          83.42          69.11         -17.11         -13.91         -150.1          67.84         -124.7          67.01          27.21
   0.07851               -42.6          6.929          83.29          69.01         -17.08         -13.87         -149.5          67.86         -123.8          67.12          27.63
   0.08069              -42.52          7.081          83.12          68.89         -17.05         -13.83         -148.9          67.89         -122.8          67.26          28.14
   0.08287              -42.41          7.265          82.93          68.74         -17.01         -13.79         -148.0          67.92         -121.6          67.42          28.76
   0.08505              -42.29          7.489          82.69          68.56         -16.96         -13.73         -147.0          67.96         -120.2          67.62          29.51
   0.08723              -42.13          7.767          82.39          68.34          -16.9         -13.66         -145.8           68.0         -118.3          67.86          30.44
   0.08941              -41.93          8.112          82.02          68.07         -16.82         -13.57         -144.3          68.06         -116.0          68.16          31.59
   0.09159              -41.69          8.548          81.56          67.72         -16.73         -13.46         -142.4          68.13         -113.2          68.55          33.05
   0.09378              -41.37          9.102          80.96          67.28          -16.6         -13.32         -139.9          68.22         -109.5          69.04           34.9
   0.09596              -40.97          9.811          80.21          66.72         -16.45         -13.14         -136.8          68.34         -104.9          69.66          37.27
   0.09814              -40.46          10.72          79.24          65.99         -16.24          -12.9         -132.7          68.49         -98.86          70.46          40.31
    0.1003               -39.8          11.88          77.99          65.07         -15.99          -12.6         -127.6          68.68          -91.2          71.48          44.19
    0.1025              -38.98          13.34          76.43          63.91         -15.66         -12.23         -121.1          68.92         -81.57          72.77          49.07
    0.1047              -37.97          15.12          74.53          62.49         -15.27         -11.77         -113.2          69.22         -69.84          74.34          55.02
    0.1069               -36.8          17.19          72.33          60.85         -14.81         -11.25         -104.1          69.56         -56.24          76.15          61.92
     0.109              -35.54          19.42          69.94          59.07         -14.31         -10.67         -94.18          69.93         -41.51          78.12          69.39
    0.1112              -34.28          21.65          67.56          57.29         -13.82          -10.1         -84.28           70.3         -26.79          80.09          76.86
    0.1134              -33.11          23.72          65.35          55.65         -13.36         -9.572         -75.14          70.64         -13.19           81.9          83.75
    0.1156               -32.1           25.5          63.45          54.24         -12.97         -9.116         -67.25          70.93         -1.455          83.47           89.7
